<svg version="1.2" xmlns="http://www.w3.org/2000/svg" viewBox="0 0 500 500" width="500" height="500">
	<title>attorney law logo design</title>
	<defs>
		<clipPath clipPathUnits="userSpaceOnUse" id="cp1">
			<path d="m143 118c2.35 0.25 2.35 0.25 5 1 1.32 1.65 1.32 1.65 2.36 3.94q0.61 1.36 1.25 2.75 3.95 9.36 7.72 18.8 2.48 6.18 4.97 12.36 0.49 1.2 0.98 2.43 5.22 12.92 10.72 25.72c1.97-2.95 3.23-5.72 4.6-8.98q0.73-1.74 1.49-3.53c0.76-1.82 0.76-1.82 1.54-3.68q0.78-1.86 1.56-3.71 1.91-4.55 3.81-9.1c2.74 1.37 3.02 2.83 4.19 5.63q0.54 1.25 1.1 2.53c2.24 8.99-3.49 18.24-6.87 26.32q-0.67 1.67-1.37 3.4-0.62 1.5-1.26 3.05c-1.53 5.94 0.34 10.97 2.61 16.48q0.71 1.75 1.45 3.56 0.75 1.8 1.53 3.66 0.73 1.81 1.5 3.67c3.13 9.04 3.13 9.04 9.14 16.03 4.71 1.94 8.89 3.24 13.98 3.67-0.5 1.49-0.5 1.49-1 3-24.42 0-48.84 0-74 0q0-1.48 0-3c0.98-0.06 0.98-0.06 1.98-0.12 3.73-0.45 6.87-0.85 9.74-3.42 1.67-2.4 2.97-4.84 4.28-7.46q0.51-0.99 1.04-2.01 1.73-3.35 3.4-6.74 0.55-1.09 1.11-2.22 0.5-1.05 1.01-2.14 0.45-0.94 0.91-1.9c1.04-3.91-0.64-7.74-2.08-11.38q-0.49-1.26-0.99-2.55-0.53-1.35-1.08-2.73-0.56-1.42-1.13-2.87-1.19-3.04-2.39-6.07-1.86-4.72-3.71-9.44c-3.44-8.79-6.89-17.57-10.54-26.27q-0.71-1.7-1.44-3.45-1.25-3-2.56-5.97c-2.63-6.31-3.36-10.61-0.8-17.19 0.87-1.9 1.82-3.73 2.81-5.57q0.49-0.94 1-1.91 1.21-2.3 2.44-4.59z"/>
		</clipPath>
	</defs>
	<style>
		.s0 { fill: #023599 } 
		.s1 { fill: #03359a } 
		.s2 { fill: #04369a } 
		.s3 { fill: #737476 } 
		.s4 { fill: #767676 } 
		.s5 { fill: #1342a0 } 
		.s6 { fill: #1745a2 } 
		.s7 { fill: #0c3c9d } 
		.s8 { fill: #0b3c9d } 
		.s9 { fill: #757676 } 
		.s10 { fill: #08399c } 
		.s11 { fill: #f8f9fc } 
		.s12 { fill: #757677 } 
		.s13 { fill: #093a9c } 
		.s14 { fill: #fbfbfd } 
		.s15 { fill: #797b7f } 
		.s16 { fill: #1242a0 } 
		.s17 { fill: #053699 } 
		.s18 { fill: #0a3b9d } 
		.s19 { fill: #0e3e9e } 
		.s20 { fill: #023499 } 
		.s21 { fill: #1a48a3 } 
		.s22 { fill: #814e4e } 
		.s23 { fill: #11409f } 
		.s24 { fill: #804d4d } 
		.s25 { fill: #1846a2 } 
		.s26 { fill: #10409f } 
		.s27 { fill: #855454 } 
		.s28 { fill: #07399c } 
		.s29 { fill: #2a55aa } 
		.s30 { fill: #0f3f9f } 
		.s31 { fill: #7e4a4a } 
		.s32 { fill: #07389b } 
		.s33 { fill: #103f9f } 
		.s34 { fill: #1d4aa4 } 
		.s35 { fill: #743c3c } 
		.s36 { fill: #763f3f } 
		.s37 { fill: #865555 } 
		.s38 { fill: #365eaf } 
		.s39 { fill: #f1ecec } 
		.s40 { fill: #335cad } 
		.s41 { fill: #234fa7 } 
		.s42 { fill: #d4dded } 
		.s43 { fill: #eef1f8 } 
		.s44 { fill: #3d64b1 } 
		.s45 { fill: #f3f5fa } 
		.s46 { fill: #315aac } 
		.s47 { fill: #2d57ab } 
		.s48 { fill: #214da6 } 
		.s49 { fill: #f0ebeb } 
		.s50 { fill: #466bb5 } 
		.s51 { fill: #1c49a4 } 
		.s52 { fill: #e6ebf5 } 
		.s53 { fill: #204da6 } 
		.s54 { fill: #936767 } 
		.s55 { fill-opacity: .57;fill: #e5e9f1 } 
	</style>
	<path class="s0" d="m288.4 117.9c3.2 1.4 3.9 2.9 5.2 6.1q0.4 1 0.9 2.1 0.4 1.1 0.9 2.3 1.5 3.6 3 7.4 1 2.5 2.1 5.1 2.7 6.7 5.4 13.4 3.2 8 6.5 16 2.5 6.2 5 12.4 0.4 1.1 0.9 2.3 0.9 2.1 1.7 4.2c1.1 3.1 1.1 3.1 3 5.8q0.5-1.3 1-2.6 1.9-4.8 3.9-9.6 0.8-2.1 1.6-4.2c3.3-8.3 6.7-16.5 10.5-24.6 1.7 2.6 3 4.9 4.2 7.8 0.5 1.3 0.5 1.3 1.1 2.5 1.6 6-1.2 11.4-3.5 16.8q-1 2.4-1.9 4.8-1.5 3.7-3 7.4-1.5 3.6-3 7.2-0.4 1-0.9 2.1c-2.7 6.8-2.3 13.1 0.5 19.8q0.4 1.1 0.9 2.2 0.4 1.1 0.9 2.2 0.5 1 0.9 2.2c2.2 5.2 4.6 9.5 9.5 12.8 4.1 1.5 8 1.9 12.3 2.2-0.5 1.5-0.5 1.5-1 3-8.3 0-16.5 0-25 0q0 1 0 2c-3.4 1.7-7.4 1.1-11.2 1.1q-1.3 0-2.7 0-4.4 0-8.7 0-3 0-5.9-0.1-7.3 0-14.5 0 0-2 0-4c1-0.1 1-0.1 2-0.1 3.9-0.5 7-0.9 9.9-3.8 1.5-2.3 2.8-4.6 4.1-7.1q0.6-1 1.2-2.1c2.6-4.6 3.1-7.6 2.8-12.9-0.8-2.7-1.6-5.2-2.7-7.7q-0.4-1.1-0.9-2.3-1.4-3.7-2.8-7.3-1-2.6-2-5.2-5.6-14.1-11.4-28.2-0.6-1.5-1.2-2.9-2.9-7-5.8-14-1.1-2.5-2.1-5.1-0.5-1.1-1-2.3c-2.4-6-2-8.7 0.2-14.5q0.8-1.8 1.6-3.7 0.4-0.9 0.8-1.9c3-6.9 3-6.9 6.7-7z"/>
	<g clip-path="url(#cp1)">
		<path class="s1" d="m143 118c2.4 0.3 2.4 0.3 5 1 1.3 1.7 1.3 1.7 2.4 3.9q0.6 1.4 1.2 2.8 4 9.4 7.7 18.8 2.5 6.2 5 12.4 0.5 1.1 1 2.4 5.2 12.9 10.7 25.7c2-3 3.2-5.7 4.6-9q0.7-1.7 1.5-3.5c0.7-1.8 0.7-1.8 1.5-3.7q0.8-1.8 1.6-3.7 1.9-4.6 3.8-9.1c2.7 1.4 3 2.8 4.2 5.6q0.5 1.3 1.1 2.6c2.2 9-3.5 18.2-6.9 26.3q-0.7 1.7-1.3 3.4-0.7 1.5-1.3 3c-1.5 6 0.3 11 2.6 16.5q0.7 1.8 1.5 3.6 0.7 1.8 1.5 3.6 0.7 1.8 1.5 3.7c3.1 9 3.1 9 9.1 16 4.7 2 8.9 3.3 14 3.7-0.5 1.5-0.5 1.5-1 3-24.4 0-48.8 0-74 0q0-1.5 0-3c1-0.1 1-0.1 2-0.1 3.7-0.5 6.9-0.9 9.7-3.4 1.7-2.4 3-4.9 4.3-7.5q0.5-1 1-2 1.8-3.4 3.4-6.8 0.6-1 1.1-2.2 0.5-1 1.1-2.1 0.4-0.9 0.9-1.9c1-3.9-0.7-7.7-2.1-11.4q-0.5-1.2-1-2.5-0.5-1.4-1.1-2.8-0.5-1.4-1.1-2.8-1.2-3.1-2.4-6.1-1.9-4.7-3.7-9.5c-3.5-8.7-6.9-17.5-10.6-26.2q-0.7-1.7-1.4-3.5-1.2-3-2.5-5.9c-2.7-6.4-3.4-10.7-0.8-17.2 0.8-1.9 1.8-3.8 2.8-5.6q0.5-0.9 1-1.9 1.2-2.3 2.4-4.6z"/>
	</g>
	<path class="s1" d="m208 118c2.4 0.2 2.4 0.2 5 1 1.3 1.8 1.3 1.8 2.4 4.3q0.6 1.4 1.2 2.8 0.6 1.5 1.3 3.2 0.7 1.6 1.4 3.2 2.4 5.8 4.7 11.5 0.9 2.3 1.8 4.5 4.9 11.9 9.7 23.9 4.1 10.2 8.4 20.4 0.4 1.1 0.9 2.2c1.2 3.3 1.2 3.3 3.2 6q0.6-1.5 1.2-2.9 2.3-5.5 4.5-11 1-2.4 1.9-4.7c3.7-8.9 7.3-17.7 11.4-26.4 2 2.6 3.6 4.9 4.8 7.9 0.3 0.9 0.3 0.9 0.7 1.9 1.1 5-0.9 9.7-2.8 14.3-0.7 1.8-0.7 1.8-1.4 3.6q-0.7 1.8-1.5 3.7-0.7 1.9-1.5 3.8c-2.1 5.3-4.2 10.6-6.5 15.9-3.4 7.6-3.4 7.6-3.1 15.7q1.1 2.1 2.3 4.2 0.6 1.5 1.3 3.1c2.9 6.7 2.9 6.7 8 11.6 4.3 1.5 8.2 2.1 12.7 2.3-0.5 1.5-0.5 1.5-1 3-20.1 0-40.3 0-61 0q0-1.5 0-3 0.9-0.1 1.8-0.3c6.5-1.2 6.5-1.2 11.2-5.7 2.5-3.9 3.3-6.3 2.5-10.9-1-4.3-2.7-8.4-4.3-12.6q-0.6-1.5-1.2-3.1c-5.8-15.3-12-30.5-18.2-45.7q-2-5-4-10-1.1-2.8-2.3-5.6c-0.6-1.7-0.6-1.7-1.3-3.4q-0.6-1.5-1.2-3c-2.3-6.5-2.3-6.5-1.4-9.8q0.5-1 1-2.1 0.6-1.1 1.1-2.2 0.6-1.2 1.2-2.3 0.5-1.2 1.1-2.4c2.8-5.7 2.8-5.7 4-6.9z"/>
	<path class="s2" d="m360 115q2 0 4 0c5 10.5 9.8 21 14 31.8q2.4 5.9 4.9 11.9 0.5 1.3 1 2.6c5.6 13.9 11.4 27.9 17.2 41.8q3 7.2 6 14.5 0.7 1.7 1.4 3.4 1.2 2.9 2.4 5.9c2.5 6.1 5.2 12.5 10.3 17 4.2 1.6 8.4 1.9 12.8 2.1q0 2 0 4c-17.8 0-35.6 0-54 0q0-2 0-4c3.3-0.3 6.6-0.7 10-1-1.1-9.8-4.1-18.5-7.7-27.6q-0.9-2.4-1.8-4.7c-6.9-17.9-14-35.8-21.2-53.7q-1.1-2.8-2.2-5.6-1.4-3.5-2.8-7-0.7-1.6-1.3-3.2-0.5-1.4-1.1-2.8c-2.1-5.7-2.1-5.7-1.3-8.4q0.5-1 1-2 0.5-1.2 1.1-2.3 0.5-1.1 1.1-2.3 0.6-1.2 1.1-2.4c2.8-5.7 2.8-5.7 5.1-8z"/>
	<path class="s3" d="m267 156c2 2.6 3.6 4.9 4.8 7.9 0.3 0.9 0.3 0.9 0.7 1.9 1.1 5-0.9 9.7-2.8 14.3q-0.7 1.8-1.4 3.6-0.7 1.8-1.5 3.7-0.7 1.9-1.5 3.8c-2.1 5.3-4.2 10.6-6.5 15.9-3.4 7.6-3.4 7.6-3 15.6q1 2.2 2.2 4.3 0.6 1.5 1.3 3.1c2.9 6.7 2.9 6.7 8 11.6 4.3 1.5 8.2 2.1 12.7 2.3-0.5 1.5-0.5 1.5-1 3-20.1 0-40.3 0-61 0q0-1.5 0-3 0.9-0.1 1.8-0.3 1.2-0.2 2.5-0.5c1.1-0.2 1.1-0.2 2.3-0.4 3.9-1.3 5.9-3.9 7.9-7.4q0.6-1.4 1.3-2.8 0.8-1.6 1.6-3.3 0.7-1.6 1.5-3.3c0.8-1.6 0.8-1.6 1.6-3.3 3.4-7.1 6.5-14.4 9.5-21.7q0.8-2 1.6-3.9 1.8-4.4 3.6-8.7c0.4-1.1 0.4-1.1 0.9-2.2q0.9-2.3 1.8-4.5c3.6-8.6 7.1-17.2 11.1-25.7z"/>
	<path class="s4" d="m124 157q1 0 2 0 1.1 2.2 2.1 4.5 0.5 1.2 1.1 2.5c1.8 6.8-0.8 13.3-3.3 19.5q-0.5 1.2-0.9 2.5-1 2.5-2 5-2.1 5.3-4.1 10.5-1.6 3.9-3.1 7.8-3.4 8.8-6.7 17.8c-0.5 1.2-0.5 1.2-1 2.5-1.6 4.3-2.6 7.8-2.1 12.4 1.6 1.6 3.4 1.3 5.6 1.6 1.2 0.1 1.2 0.1 2.5 0.2q0.9 0.1 1.9 0.2 0 1.5 0 3c-13.5 0-27.1 0-41 0q0-1.5 0-3c1-0.1 1-0.1 2-0.1 1.3-0.2 1.3-0.2 2.6-0.3q1.3-0.2 2.6-0.3c6.8-3.2 10.2-12.6 13.2-19.1q0.6-1.3 1.3-2.6c4.2-9.2 8.1-18.5 12-27.8q0.5-1.1 0.9-2.3 5.8-13.9 11.2-27.9c2.1-5.5 2.1-5.5 3.2-6.6z"/>
	<path class="s5" d="m243.5 335.1c7.1 5.3 7.1 5.3 7.9 10.7 0.2 4.8 0 8.3-1.9 12.7-4.6 4.6-9 6.7-15.5 7-6.5-0.3-10.9-2.4-15.5-7-2.2-5.2-2.5-9.9-1.5-15.5 5.4-10.1 16.3-11.2 26.5-7.9z"/>
	<path class="s6" d="m143 334q5-0.2 9.9-0.3 1.4 0 2.8-0.1c6.5 0 11.8 0.9 17.3 4.4 3.2 3.5 4.2 6.9 4.5 11.6-0.2 4.4-1.4 7-4.5 10.4-6.2 4.6-11.4 4.5-18.9 4.3-1.6-0.1-1.6-0.1-3.3-0.1q-3.9-0.1-7.8-0.2 1.5-1 3-2c0.5-2.7 0.5-2.7 0.5-5.9 0.1-1.7 0.1-1.7 0.1-3.5q0.1-1.8 0.1-3.7 0-1.9 0.1-3.8 0.1-4.5 0.2-9.1-2-1-4-2z"/>
	<path class="s7" d="m250 286q1 0 2 0c1.5 2.2 1.5 2.2 3.3 5.3q0.9 1.6 1.9 3.2 0.9 1.7 1.9 3.5 1 1.7 2 3.5 2.5 4.2 4.9 8.5c4.9-7.9 9.7-15.8 14-24q1 0 2 0c0.2 1.3 0.2 1.3 0.4 2.7q0.6 5 1.3 10 0.2 2.1 0.5 4.3 0.4 3.1 0.8 6.1 0.3 1.9 0.5 3.8c0.4 3.1 0.4 3.1 1.5 6.1q1.5 1 3 2c-4.3 0-8.6 0-13 0q0.1-1.7 0.1-3.4c0-5-1-9.7-2.1-14.6q-0.9 1.7-1.9 3.4-1.2 2.2-2.5 4.4-0.6 1.1-1.2 2.2c-0.6 1.1-0.6 1.1-1.2 2.2q-0.6 1-1.1 2c-1 1.6-2 3.2-3.1 4.8q-0.5-0.8-1-1.7-2.2-3.6-4.4-7.3-0.8-1.3-1.6-2.6-0.7-1.2-1.5-2.5-0.7-1.1-1.4-2.2-0.5-0.9-1.1-1.7-0.5 0-1 0c-0.3 5.6-0.7 11.2-1 17-2.3 0-4.6 0-7 0 1-0.5 1-0.5 2-1 0.5-2.5 0.8-5 1.1-7.5q0.1-1.2 0.2-2.3 0.4-3.6 0.8-7.3 0.3-2.4 0.6-4.9 0.7-6 1.3-12z"/>
	<path class="s8" d="m64 289c2.7 2.6 4.9 5.1 6.8 8.3q0.7 1.2 1.5 2.4 0.7 1.3 1.5 2.5 0.7 1.3 1.5 2.6 1.9 3.1 3.7 6.2 0.8-1.2 1.5-2.5c9.5-15.4 9.5-15.4 12.5-19.5q0.5 0 1 0c0.2 1.2 0.2 1.2 0.4 2.4q0.7 5.4 1.5 10.8c0.3 1.9 0.3 1.9 0.6 3.9q0.3 1.7 0.5 3.6 0.3 1.7 0.5 3.4c0.5 3.5 0.5 3.5 1.5 6.9q1.5 1 3 2c-4.6 0-9.2 0-14 0q1-0.5 2-1c-0.7-5.6-1.3-11.2-2-17q-0.9 1.7-1.9 3.4-1.2 2.2-2.5 4.4-0.6 1.1-1.2 2.2c-0.6 1.1-0.6 1.1-1.2 2.2q-0.6 1-1.1 2c-1 1.6-2 3.2-3.1 4.8-5.4-8.9-5.4-8.9-11-18-0.7 5.3-1.3 10.6-2 16q1 0.5 2 1c-3.3 0-6.6 0-10 0q1.5-1 3-2c0.9-3.2 0.9-3.2 1.4-7q0.1-1 0.3-2.1 0.5-3.2 1-6.5 0.3-2.3 0.7-4.5 0.8-5.4 1.6-10.9z"/>
	<path class="s9" d="m340 154c1.7 2.6 3 4.9 4.2 7.8q0.5 1.3 1.1 2.5c1.6 6-1.2 11.5-3.4 17-0.5 1.2-0.5 1.2-1 2.3q-1.4 3.8-2.9 7.5-1.5 3.7-2.9 7.4-1 2.3-1.9 4.6c-1.4 3.6-2.6 7-3.2 10.9-2.1-3.1-3.3-6-4.6-9.5q-0.7-1.7-1.4-3.5c-1.7-5-0.5-7.7 1.4-12.5q0.4-0.9 0.8-1.9 0.8-2 1.7-4 1.2-3.1 2.4-6.1c3-7.6 6.2-15.1 9.7-22.5z"/>
	<path class="s10" d="m120 329q1 0 2 0 0.7 1.5 1.3 3 2.5 5.5 5 11 1.1 2.4 2.1 4.8 1.6 3.4 3.1 6.8 0.5 1 1 2.1c1.3 2.9 2.3 5.1 4.5 7.3-4.6 0-9.2 0-14 0 1-0.5 1-0.5 2-1-0.7-3-1.3-5.9-2-9-4 0.3-7.9 0.7-12 1-1 2.6-2 5.3-3 8q1 0.5 2 1c-3.3 0-6.6 0-10 0q1.1-1 2.3-2.1c2.9-3.1 4.4-6.1 6-10 0.5-0.9 0.5-0.9 0.9-1.9q1.3-3.2 2.6-6.3 0.9-2.1 1.8-4.3 2.2-5.2 4.4-10.4z"/>
	<path class="s11" d="m238 336c3.7 2.9 5.7 5.2 6.2 10 0.2 5.8-0.8 10.2-4.2 15-3.5 1.7-7.2 1.6-11 1-2.8-2.7-4.8-5.2-5.2-9.1-0.1-5.8 0.3-9.8 3.2-14.9 3.7-2.4 6.7-2.8 11-2z"/>
	<path class="s12" d="m164 216q1 0 2 0 1.8 4.8 3.6 9.6c0.5 1.3 0.5 1.3 1 2.7 2 5.4 2.8 9.1 1.4 14.7-3 0.7-5.9 1.3-9 2q0 1 0 2c-7.6 0-15.2 0-23 0q0-1.5 0-3 1-0.1 2-0.1c3.7-0.5 6.9-0.9 9.7-3.4 5.2-7.4 8.6-16.3 12.3-24.5z"/>
	<path class="s4" d="m189 156c2.7 1.4 3 2.8 4.2 5.6q0.5 1.3 1.1 2.6c1.5 5.8-0.6 11.2-2.8 16.6q-0.4 0.9-0.7 1.9-1.2 2.9-2.4 5.7-0.8 2-1.5 4-2 4.8-3.9 9.6c-4.1-4.1-6-9.3-7-15 0.8-5.8 3.7-11.1 6.2-16.3q1-2.2 1.9-4.3 2.4-5.2 4.9-10.4z"/>
	<path class="s13" d="m307 333c2.5 3.1 4.2 6.2 5.8 9.8q0.8 1.6 1.6 3.3 1.6 3.5 3.2 7 0.8 1.7 1.6 3.4 0.7 1.5 1.4 3c1.3 2.8 1.3 2.8 4.4 4.5-4.6 0-9.2 0-14 0q1-0.5 2-1c-0.7-2.3-1.3-4.6-2-7-3.6 0-7.3 0-11 0-0.7 2.3-1.3 4.6-2 7q1 0.5 2 1c-3 0-5.9 0-9 0q0.9-1 1.8-2.1c2.2-3 3.7-5.7 5.2-9.1q0.8-1.7 1.6-3.5 0.8-1.8 1.6-3.6 0.9-1.9 1.7-3.7 2.1-4.5 4.1-9z"/>
	<path class="s14" d="m154 336c9 0 9 0 11.4 2.4 4.2 4.2 3.9 7.1 3.8 12.8-0.3 3.6-1.1 5.9-3.2 8.8-3.8 3.1-6.7 2-12 2 0-8.6 0-17.2 0-26z"/>
	<path class="s15" d="m310 223c4 6 5.8 11.7 5 19-3.6 2.4-5.7 2.2-10 2q0 1.5 0 3 1.7-0.1 3.5-0.2c11.2-0.7 22.3-0.9 33.5-0.8q0 0.5 0 1c-3.3 0-6.6 0-10 0q0 1 0 2c-3.4 1.7-7.4 1.1-11.2 1.1q-1.3 0-2.7 0-4.4 0-8.7 0-3 0-5.9-0.1-7.3 0-14.5 0 0-2 0-4 1-0.1 2-0.1c3.9-0.5 7-0.9 9.9-3.8 1.5-2.3 2.8-4.6 4.1-7.1q0.6-1.1 1.2-2.2c1.7-3.3 3-6.2 3.8-9.8z"/>
	<path class="s8" d="m360 334c7.3 0 14.5 0 22 0q0 2.5 0 5-1.5-1-3-2c-3-0.5-6-0.7-9-1 0 4 0 7.9 0 12q1.9-0.2 3.9-0.3 1-0.1 2.2-0.2c2.3-0.4 2.3-0.4 3.9-3.5 0 3 0 5.9 0 9q-0.5-1-1-2c-2.1-0.5-2.1-0.5-4.6-0.6q-2.1-0.2-4.4-0.4c0 4 0 7.9 0 12 6.2-0.2 6.2-0.2 11.4-2.9 0.8-1.1 0.8-1.1 1.6-2.1q1-1 2-2c-0.7 3-1.3 5.9-2 9-7.6 0-15.2 0-23 0q1-1 2-2c0.3-2.7 0.3-2.7 0.3-5.8q0-1.7 0-3.5 0-1.8-0.1-3.7 0.1-1.8 0.1-3.7 0-1.7 0-3.5 0-1.6 0-3.2c0-2.8 0-2.8-2.3-4.6z"/>
	<path class="s16" d="m276.1 333.8c1.8 0 1.8 0 3.7 0 3.2 0.2 3.2 0.2 6.2 2.2 0.2 3.6 0.2 3.6 0 7q-0.9-1.2-1.9-2.4c-2.1-2.6-2.9-3.5-6.1-3.8-5.1-0.3-5.1-0.3-9.5 2.1-3.4 4.7-3 9.4-2.5 15.1 1.5 3.8 1.5 3.8 4 7q2.7 0.2 5.4 0.2 1.4 0.1 2.9 0.1c2.7-0.1 2.7-0.1 4.5-1.6 1.7-2.4 2.4-4.9 3.2-7.7q0.5 0 1 0c0.4 5.2 0.4 5.2 0 8-4 4.3-7.2 4.8-12.8 5.3-4.7-0.1-8.3-1.6-12.2-4.3-4.3-4.6-5.3-7.5-5.2-13.7 0.4-4.7 2.3-7.4 5.6-10.6 4.5-2.9 8.4-2.9 13.7-2.9z"/>
	<path class="s17" d="m254 220c2.6 3.1 4 6.2 5.4 9.9 2.6 6.4 5.1 10.3 11.6 13.1 2.4 0.4 2.4 0.4 4.8 0.6q1.1 0.1 2.4 0.3 0.9 0 1.8 0.1-0.5 1.5-1 3c-13.6 0.2-13.6 0.2-20-1q0-1 0-2-0.9 0-1.9 0-1.2 0-2.5 0.1-1.2 0-2.4 0c-2.2-0.1-2.2-0.1-4.2-1.1-0.7-8.2 1.6-14.5 5-22q0.5-0.5 1-1z"/>
	<path class="s18" d="m409 334c0 2.3 0 4.6 0 7q-0.5-1-1-2c-1.8-2.2-1.8-2.2-4-2.3-2 0-4 0.2-6 0.3-0.4 2.3-0.4 2.3 0 5 2.3 2.1 2.3 2.1 5.4 3.7 5.5 3.2 5.5 3.2 7.6 5.3 0.6 3.1 0.5 5.9 0 9-3.4 3.7-6.4 4.9-11.3 5.3-4-0.3-6.3-1.3-9.7-3.3 0.3-2.3 0.7-4.6 1-7q1 0 2 0 0.4 1.2 0.8 2.4c1 2.9 1 2.9 4.2 4.6 3.6-0.3 3.6-0.3 7-1 0.5-2.3 0.5-2.3 0-5-2.6-2.3-2.6-2.3-5.9-4.1-5.9-3.6-5.9-3.6-8.1-6.9-0.6-3.8-0.3-5.5 1.7-8.9 5.1-3.3 10.3-2.5 16.3-2.1z"/>
	<path class="s19" d="m180 334c4.6 0 9.2 0 14 0-1 0.5-1 0.5-2 1q1.2 3.1 2.4 6.3 0.6 1.7 1.3 3.5c1 2.5 2 4.8 3.3 7.2q1.6-3.4 3.1-6.8 0.4-0.9 0.9-1.9c1.7-3.8 2.1-5.1 1-9.3 3.3 0 6.6 0 10 0-1.1 0.9-1.1 0.9-2.1 1.7-4.3 4.3-6.2 10.1-8.6 15.6q-1.4 3.2-2.9 6.5-0.6 1.5-1.2 3c-1.2 2.2-1.2 2.2-3.2 3.2q-0.6-1.2-1.1-2.4-2.2-4.5-4.3-9-0.9-1.9-1.8-3.8-1.3-2.8-2.7-5.6-0.8-1.7-1.6-3.4c-1.5-3-1.5-3-4.5-5.8z"/>
	<path class="s20" d="m326 334c9.6 0 19.1 0 29 0q0 2.5 0 5-1.5-1-3-2c-2-0.5-2-0.5-4.2-0.6q-1.9-0.2-3.8-0.4 0.2 6.4 0.4 12.9 0.1 1.8 0.2 3.7 0 1.7 0.1 3.5 0 1.6 0.1 3.3c0 2.6 0 2.6 1.2 4.6-4 0-7.9 0-12 0q1.5-0.5 3-1c0-8.9 0-17.8 0-27-7.5 0.1-7.5 0.1-10 3.1q-0.5 0.9-1 1.9c0-2.3 0-4.6 0-7z"/>
	<path class="s21" d="m184 296c2.3 2 4.6 4 7 6q2.5 2 4.9 3.9c2 1.5 2 1.5 4.1 3.1 0-4 0-7.9 0-12q-1-0.5-2-1c3.3 0 6.6 0 10 0-1 0.5-1 0.5-2 1 0 6.9 0 13.9 0 21-4.1-2-7-4.5-10.3-7.6q-0.8-0.8-1.6-1.6-2.1-1.9-4.1-3.8c0 4.3 0 8.6 0 13-2.6 0-5.3 0-8 0q1-0.5 2-1c0-6.9 0-13.9 0-21z"/>
	<path class="s22" d="m209 383q2 0 4 0c1.3 3.6 2.6 7.3 4 11 1.7-2.5 2.6-4.4 3.6-7.2q0.4-1.1 0.8-2.2 0.3-0.8 0.6-1.6 2 0 4 0c1.3 4 2.6 7.9 4 12 1.7-4 3.3-7.9 5-12q1.5 0 3 0c-0.4 4.5-1.4 8.6-2.8 12.9-0.4 1.4-0.4 1.4-0.9 2.8q-0.6 1.2-1.3 2.3-2.5 0.5-5 1c-1.3-3.6-2.6-7.3-4-11-1.7 3.6-3.3 7.3-5 11q-2 0-4 0-1.5-4.2-3-8.4c-0.4-1.2-0.4-1.2-0.9-2.4q-0.4-1.1-0.8-2.3-0.4-1-0.7-2.1c-0.6-1.8-0.6-1.8-0.6-3.8z"/>
	<path class="s23" d="m132 296c5.6 4.2 10.8 8.3 16 13 0.3-4 0.7-7.9 1-12q2.5 0 5 0c0 6.9 0 13.9 0 21-6-4-10.7-8.2-16-13 0 4.3 0 8.6 0 13-2.6 0-5.3 0-8 0q1-0.5 2-1c0-6.9 0-13.9 0-21z"/>
	<path class="s24" d="m288 383c10-0.5 10-0.5 14.2 1.6 1.8 2.4 1.8 2.4 2.2 5.5-0.4 2.9-0.4 2.9-2.4 4.9 0.3 2 0.3 2 1 4q0.5 1.5 1 3-2 0-4 0-1-2.5-2-5-3 0-6 0 0 2.5 0 5-2 0-4 0c0-6.3 0-12.5 0-19z"/>
	<path class="s25" d="m343 297q3 0 6 0c-0.3 3.3-0.7 6.6-1 10 3.3 0 6.6 0 10 0-0.3-3.3-0.7-6.6-1-10q3 0 6 0c0.3 6.9 0.7 13.9 1 21-2.6 0-5.3 0-8 0 0.3-3.3 0.7-6.6 1-10-3 0-5.9 0-9 0 0.3 3.3 0.7 6.6 1 10-2.3 0-4.6 0-7 0 0.3-6.9 0.7-13.9 1-21z"/>
	<path class="s18" d="m146 335c5.6 0 11.2 0 17 0q-0.5 1-1 2c-2.6-0.3-5.3-0.7-8-1 0 8.6 0 17.2 0 26 3 0 5.9 0 9 0-2 2-2 2-3.9 2.2q-1.1 0-2.2 0-1.2 0-2.5 0-1.2 0-2.5-0.1c-1.3 0-1.3 0-2.6 0q-3.1 0-6.3-0.1 1.5-1 3-2c0.4-2.8 0.4-2.8 0.3-6.1q0-1.8 0-3.7-0.1-1.9-0.1-3.8 0-1.9-0.1-3.9 0-4.8-0.1-9.5z"/>
	<path class="s26" d="m396 297q3.1-0.1 6.3-0.2c1.7 0 1.7 0 3.5-0.1 3.4 0.3 4.8 0.8 7.2 3.3 0.4 2.4 0.4 2.4 0 5q-1.5 2-3 4c2 3 4 5.9 6 9-2.7 0.4-2.7 0.4-6 0-3.5-3.4-5.5-6.4-7-11q1.5 0 3 0c0-2.3 0-4.6 0-7-2.5-1-2.5-1-5-2 0.3 6.6 0.7 13.2 1 20-2.6 0-5.3 0-8 0q1-0.5 2-1c0-6.6 0-13.2 0-20z"/>
	<path class="s27" d="m311 383q2 0 4 0c1.6 2.2 1.6 2.2 3.1 5q1.4 2.5 2.9 5 1 0 2 0c1.6-2.5 3-5.2 4.5-7.8q0.7-1.1 1.5-2.2 1.5 0 3 0c0 6.3 0 12.5 0 19q-1.5 0-3 0c-0.3-3.6-0.7-7.3-1-11-1.6 3-3.3 5.9-5 9-4.4-1.5-4.9-4-7-8-0.3 3.3-0.7 6.6-1 10q-2 0-4 0c0-6.3 0-12.5 0-19z"/>
	<path class="s28" d="m229 335q0 1.5 0 3-1 0-2 0c-2.4 6.9-3.5 13.6-0.5 20.5 3.4 3.4 5.8 3.7 10.5 4.5q0 0.5 0 1c-6.6 0.5-11.4 0.7-16.7-3.5-3.9-4.3-3.8-8.9-3.8-14.5 0.7-4.6 3-7.2 6.5-10 2-1 2-1 6-1z"/>
	<path class="s29" d="m212 296c5.3 0 10.6 0 16 0q-0.5 1.5-1 3c-2.3-0.3-4.6-0.7-7-1 0 2.6 0 5.3 0 8q3 0 6 0 0.5-1 1-2c0 2.3 0 4.6 0 7q-1-1-2-2c-2.6-0.6-2.6-0.6-5-1 0 2.6 0 5.3 0 8 4.8-0.3 4.8-0.3 8.9-2.6q0.6-0.7 1.1-1.4-0.5 3-1 6c-5.6 0-11.2 0-17 0q1-0.5 2-1c0-6.6 0-13.2 0-20q-1-0.5-2-1z"/>
	<path class="s29" d="m160 296c5.3 0 10.6 0 16 0q-0.5 1.5-1 3c-2.3-0.3-4.6-0.7-7-1 0 2.6 0 5.3 0 8q3 0 6 0 0.5-1 1-2c0 2.3 0 4.6 0 7q-1-1-2-2c-2.6-0.6-2.6-0.6-5-1 0 2.6 0 5.3 0 8 4.8-0.3 4.8-0.3 8.9-2.6q0.6-0.7 1.1-1.4-0.5 3-1 6c-5.6 0-11.2 0-17 0q1-0.5 2-1c0-6.6 0-13.2 0-20q-1-0.5-2-1z"/>
	<path class="s30" d="m442 296q1 0 2 0 2.5 5.2 5 10.4 0.7 1.5 1.4 3 0.7 1.5 1.4 2.9 0.6 1.3 1.3 2.7c0.9 2 0.9 2 0.9 3-2.6 0-5.3 0-8 0q-0.5-2.5-1-5c-2.3 0-4.6 0-7 0q-0.5 2.5-1 5-3 0-6 0 1-1.5 2.1-3.1c3.8-5.9 6.3-12.4 8.9-18.9z"/>
	<path class="s30" d="m378 296q1 0 2 0 2.5 5.2 5 10.4 0.7 1.5 1.4 3 0.7 1.5 1.4 2.9 0.6 1.3 1.3 2.7c0.9 2 0.9 2 0.9 3-2.6 0-5.3 0-8 0q-0.5-2.5-1-5c-2.3 0-4.6 0-7 0q-0.5 2.5-1 5-3 0-6 0 1-1.5 2.1-3.1c3.8-5.9 6.3-12.4 8.9-18.9z"/>
	<path class="s30" d="m299 296q1 0 2 0 2.5 5.2 5 10.4 0.7 1.5 1.4 3 0.7 1.5 1.4 2.9 0.6 1.3 1.3 2.7c0.9 2 0.9 2 0.9 3-2.6 0-5.3 0-8 0q-0.5-2.5-1-5c-2.3 0-4.6 0-7 0q-0.5 2.5-1 5-3 0-6 0 1-1.5 2.1-3.1c3.8-5.9 6.3-12.4 8.9-18.9z"/>
	<path class="s31" d="m193 383q2 0 4 0 2 4.2 4 8.4 0.6 1.2 1.2 2.4 0.5 1.1 1.1 2.3c0.5 1 0.5 1 1 2.1 0.7 1.8 0.7 1.8 0.7 3.8q-2 0-4 0-0.5-2-1-4c-3.3 0.3-6.6 0.7-10 1q-0.5 1.5-1 3-2 0-4 0c1.4-4.5 3.1-8.6 5.1-12.9q0.8-1.7 1.7-3.5c0.6-1.3 0.6-1.3 1.2-2.6z"/>
	<path class="s32" d="m120 296q3 0 6 0-0.1 3.8-0.3 7.7 0 1.1-0.1 2.2c-0.2 4.4-0.8 7.4-3.6 11.1-2.4 1.2-4.1 1.3-6.8 1.4q-1.3 0-2.6 0.1c-3.9-0.8-5.3-2.3-7.6-5.5-0.6-2.8-0.5-5.5-0.3-8.3q0-1.1 0.1-2.3 0-2.7 0.2-5.4 2.5 0 5 0 0.1 1.7 0.1 3.4 0.2 2.2 0.3 4.4 0 1.1 0.1 2.2c0.2 3.8 0.4 5.8 2.5 9 3 0.4 3 0.4 6 0 3-3 2.5-6.6 2.6-10.6q0.1-1.2 0.1-2.5 0.2-2.9 0.3-5.9-1-0.5-2-1z"/>
	<path class="s25" d="m120 340q1 2.7 2 5.4c0.6 1.5 0.6 1.5 1.1 3 0.9 2.6 0.9 2.6 0.9 4.6-3.3 0.3-6.6 0.7-10 1-2 4.5-2 4.5-4 9q1 0.5 2 1c-3.3 0-6.6 0-10 0q1.1-0.9 2.2-1.9c3.6-3.5 5.1-7.8 7-12.3q1-2.5 2-4.9 0.5-1.1 0.9-2.2c1.5-2.8 2.8-2.7 5.9-2.7z"/>
	<path class="s33" d="m327.5 295.8q1.1-0.1 2.3-0.1c2.4 0.3 4.1 1.1 6.2 2.3q0 2.5 0 5-0.7-1-1.5-2c-2.6-2.1-3.3-2.4-6.6-2.5-3.8 0.2-3.8 0.2-5.9 1.9-1.5 3.9-1.7 7.5-1 11.6 1.3 2.8 1.3 2.8 4 4 2.8 0.2 5.3-0.1 8-1 2-1.9 2-1.9 3-4 0.2 2.4 0.2 2.4 0 5-4.7 3.1-9.5 2.6-15 2-3.1-1.8-4.4-2.9-6-6-0.5-4.5-0.6-8 1.8-11.9 3.4-3.2 6-4.4 10.7-4.4z"/>
	<path class="s31" d="m256 383c4.6 0 9.2 0 14 0q0 1.5 0 3c-3.6 0-7.3 0-11 0q0 3 0 6c3.3 0 6.6 0 10 0q0 1.5 0 3c-3 0-5.9 0-9 0 0 2.3 0 4.6 0 7q-2 0-4 0c0-6.3 0-12.5 0-19z"/>
	<path class="s34" d="m305 345.2c2 0.8 2 0.8 3 2.9q1 3.4 2 6.9c-3.3 0.3-6.6 0.7-10 1-0.7 2.3-1.3 4.6-2 7q1 0.5 2 1c-3 0-5.9 0-9 0q0.9-1 1.8-2.1c2.3-3.1 3.8-6.1 5.3-9.6 3.2-7.4 3.2-7.4 6.9-7.1z"/>
	<path class="s20" d="m343 297q3 0 6 0c-0.3 3.3-0.7 6.6-1 10 3 0 5.9 0 9 0q0 0.5 0 1c-3 0-5.9 0-9 0 0.3 3.3 0.7 6.6 1 10-2.3 0-4.6 0-7 0 0.3-6.9 0.7-13.9 1-21z"/>
	<path class="s18" d="m421 297q3 0 6 0c0 6.9 0 13.9 0 21-2.6 0-5.3 0-8 0q1-0.5 2-1c0-6.6 0-13.2 0-20z"/>
	<path class="s35" d="m168 383q1.5 0 3 0c0 5.3 0 10.6 0 16 3.3 0 6.6 0 10 0q0 1.5 0 3c-4.3 0-8.6 0-13 0 0-6.3 0-12.5 0-19z"/>
	<path class="s36" d="m329 383q1.5 0 3 0c0 6.3 0 12.5 0 19q-1.5 0-3 0c-0.3-3.6-0.7-7.3-1-11q-2 2-4 4-0.5-1-1-2c1.1-2.4 1.1-2.4 2.8-5.1 0.7-1.4 0.7-1.4 1.6-2.8q0.8-1 1.6-2.1z"/>
	<path class="s31" d="m209 383q2 0 4 0 1 2.7 2 5.3 0.6 1.5 1.1 3c0.9 2.7 0.9 2.7 0.9 5.7q2-0.5 4-1c-0.7 2-1.3 4-2 6q-2 0-4 0-1.5-4.2-3-8.4c-0.4-1.2-0.4-1.2-0.9-2.4q-0.4-1.1-0.8-2.3-0.4-1-0.7-2.1c-0.6-1.8-0.6-1.8-0.6-3.8z"/>
	<path class="s37" d="m276 383q2 0 4 0c0 6.3 0 12.5 0 19q-2 0-4 0c0-6.3 0-12.5 0-19z"/>
	<path class="s38" d="m326 334c8.6 0 17.2 0 26 0q0 0.5 0 1c-4.6 0-9.2 0-14 0 0 8.6 0 17.2 0 26q-0.5 0-1 0c0-8.3 0-16.5 0-25-7.5 0.1-7.5 0.1-10 3.1q-0.5 0.9-1 1.9c0-2.3 0-4.6 0-7z"/>
	<path class="s39" d="m292 386c5.6-0.3 5.6-0.3 9 2-0.4 2.4-0.4 2.4-1 5-2.7 1.4-5 1.1-8 1 0-2.6 0-5.3 0-8z"/>
	<path class="s40" d="m120 296q3 0 6 0-0.1 3.8-0.3 7.7 0 1.1-0.1 2.2c-0.2 4.4-0.7 7.5-3.6 11.1q-1.5 0.5-3 1 0.5-0.7 1-1.5c1.5-3.7 1.5-7.3 1.6-11.3q0.1-1.1 0.1-2.4 0.2-2.9 0.3-5.8-1-0.5-2-1z"/>
	<path class="s41" d="m63 305q1 0.5 2 1c-0.3 4.9-0.7 9.9-1 15q1 0.5 2 1c-3.3 0-6.6 0-10 0q1.5-1 3-2c0.7-2.8 0.7-2.8 1.1-5.9 0.5-3.9 0.7-5.8 2.9-9.1z"/>
	<path class="s42" d="m401 298c5 1 5 1 6 2q-0.4 3.5-1 7-1.5 0.5-3 1c-0.3 3-0.7 5.9-1 9q-0.5 0-1 0c0-6.3 0-12.5 0-19z"/>
	<path class="s43" d="m118 341q1 0 2 0 0.8 1.9 1.5 3.8c0.4 1.1 0.4 1.1 0.8 2.2 0.7 2 0.7 2 0.7 5-3 0-5.9 0-9 0 1.3-3.6 2.6-7.3 4-11z"/>
	<path class="s44" d="m391 355q1 0 2 0 0.4 1.2 0.8 2.4c1 2.9 1 2.9 4.2 4.6q0 1 0 2 2.5 0 5 0 0 0.5 0 1c-5.3 0.3-8.4-0.3-13-3 0.3-2.3 0.7-4.6 1-7z"/>
	<path class="s45" d="m305 345c2 1 2 1 3.1 3.4 0.9 2.6 0.9 2.6 0.9 5.6-2.3 0-4.6 0-7 0 0.6-3.3 1.4-6 3-9z"/>
	<path class="s46" d="m286 352q0.5 0 1 0c0.6 7.2 0.6 7.2-1.9 10.6-4.5 2-8.3 1.3-13.1 0.4q0-0.5 0-1 0.9-0.1 1.9-0.1 1.2-0.1 2.4-0.2 1.2-0.1 2.4-0.2c2.7-0.6 3.6-1.3 5.3-3.5 1.2-3.1 1.2-3.1 2-6z"/>
	<path class="s47" d="m204 334c3.3 0 6.6 0 10 0q-3.5 3.5-7 7-1 0-2 0 0-1.2 0.1-2.4c0.1-2.6 0.1-2.6-1.1-4.6z"/>
	<path class="s48" d="m272 300q2.5 0.5 5 1 0 2.5 0 5-1-1.5-2-3-0.6 1.2-1.3 2.4c-1.7 2.6-1.7 2.6-3.9 3.4q-0.9 0.1-1.8 0.2c1.2-3.1 2.5-6.1 4-9z"/>
	<path class="s49" d="m194 388q1 0 2 0c1.5 2.6 2 3.9 2 7q-3 0-6 0c0.9-4.8 0.9-4.8 2-7z"/>
	<path class="s50" d="m323 296q2.1-0.1 4.3-0.1 1.1-0.1 2.3-0.1c2.6 0.2 4.2 0.9 6.4 2.2q0 2.5 0 5c-0.7-0.9-0.7-0.9-1.4-1.9-3.6-2.9-7.1-3.4-11.6-4.1q0-0.5 0-1z"/>
	<path class="s41" d="m400 334c3 0 5.9 0 9 0 0 2.3 0 4.6 0 7-0.6-1-0.6-1-1.1-1.9-2.5-2.7-4.3-2.8-7.9-3.1q0-1 0-2z"/>
	<path class="s51" d="m206 340q1 1 2 2c-1.3 2.9-1.3 2.9-3 6-2.2 0.9-2.2 0.9-4 1 1.1-3.8 1.9-6.5 5-9z"/>
	<path class="s52" d="m441 304c1.9 2.4 3 4.1 4 7q-3 0-6 0c0.9-4.8 0.9-4.8 2-7z"/>
	<path class="s52" d="m377 304c1.9 2.4 3 4.1 4 7q-3 0-6 0c0.9-4.8 0.9-4.8 2-7z"/>
	<path class="s52" d="m298 304c1.9 2.4 3 4.1 4 7q-3 0-6 0c0.9-4.8 0.9-4.8 2-7z"/>
	<path class="s53" d="m436 310q1.5 0.5 3 1-0.5 1.4-1 2.9c-1.1 2.7-1.1 2.7-1 4.1q-3 0-6 0c1.6-2.6 3.3-5.3 5-8z"/>
	<path class="s53" d="m372 310q1.5 0.5 3 1-0.5 1.4-1 2.9c-1.1 2.7-1.1 2.7-1 4.1q-3 0-6 0c1.6-2.6 3.3-5.3 5-8z"/>
	<path class="s53" d="m293 310q1.5 0.5 3 1-0.5 1.4-1 2.9c-1.1 2.7-1.1 2.7-1 4.1q-3 0-6 0c1.6-2.6 3.3-5.3 5-8z"/>
	<path class="s54" d="m235 383q1.5 0 3 0c-0.3 2.3-0.7 4.6-1 7q-1-1-2-2c-1 0.5-1 0.5-2 1 0.7-2 1.3-4 2-6z"/>
	<path class="s55" d="m171 234c2 2 2 2 2.1 4.6q0 1.2-0.1 2.4-1.5 0.5-3 1-0.1-3.5 0-7 0.5-0.5 1-1z"/>
</svg>